<?xml version="1.0" encoding="UTF-8"?>
<!DOCTYPE svg PUBLIC "-//W3C//DTD SVG 1.1//EN" "http://www.w3.org/Graphics/SVG/1.1/DTD/svg11.dtd">
<!-- Creator: CorelDRAW 2019 (64-Bit) -->
<svg xmlns="http://www.w3.org/2000/svg" xml:space="preserve" width="500px" height="500px" version="1.1" style="shape-rendering:geometricPrecision; text-rendering:geometricPrecision; image-rendering:optimizeQuality; fill-rule:evenodd; clip-rule:evenodd"
viewBox="0 0 209.29 209.29"
 xmlns:xlink="http://www.w3.org/1999/xlink">
 <defs>
  <style type="text/css">
   <![CDATA[
    .fil0 {fill:#E31E24}
    .fil2 {fill:#FEFEFE;fill-rule:nonzero}
    .fil1 {fill:#E31E24;fill-rule:nonzero}
   ]]>
  </style>
 </defs>
 <g id="Ebene_x0020_1">
  <metadata id="CorelCorpID_0Corel-Layer"/>
  <g>
   <path class="fil0" d="M13.05 2.87l183.19 0c5.6,0 10.18,4.58 10.18,10.18l0 183.19c0,5.6 -4.58,10.18 -10.18,10.18l-183.19 0c-5.6,0 -10.18,-4.58 -10.18,-10.18l0 -183.19c0,-5.6 4.58,-10.18 10.18,-10.18z"/>
   <path id="1" class="fil1" d="M196.24 5.74l-183.19 0 0 -5.74 183.19 0 0 0 0 5.74zm13.05 7.31l-5.74 0 0 0 -0.01 -0.38 -0.03 -0.36 -0.04 -0.37 -0.07 -0.36 -0.08 -0.35 -0.1 -0.34 -0.11 -0.34 -0.13 -0.33 -0.15 -0.32 -0.16 -0.32 -0.18 -0.3 -0.19 -0.3 -0.21 -0.29 -0.21 -0.27 -0.24 -0.27 -0.24 -0.26 -0.25 -0.24 -0.27 -0.23 -0.28 -0.22 -0.29 -0.2 -0.29 -0.2 -0.31 -0.17 -0.31 -0.16 -0.33 -0.15 -0.33 -0.13 -0.33 -0.12 -0.35 -0.09 -0.35 -0.09 -0.36 -0.06 -0.36 -0.05 -0.37 -0.03 -0.38 -0.01 0 -5.74 0.67 0.02 0.66 0.05 0.66 0.08 0.64 0.12 0.63 0.14 0.62 0.18 0.61 0.21 0.59 0.23 0.58 0.26 0.56 0.29 0.55 0.32 0.52 0.34 0.52 0.36 0.49 0.39 0.47 0.41 0.45 0.43 0.43 0.45 0.41 0.48 0.39 0.49 0.37 0.51 0.34 0.53 0.31 0.54 0.29 0.57 0.26 0.58 0.24 0.59 0.2 0.61 0.18 0.61 0.15 0.64 0.11 0.64 0.09 0.65 0.05 0.66 0.01 0.67 0 0zm-5.74 183.19l0 -183.19 5.74 0 0 183.19 0 0 -5.74 0zm-7.31 13.05l0 -5.74 0 0 0.38 -0.01 0.37 -0.03 0.36 -0.04 0.36 -0.07 0.35 -0.08 0.35 -0.1 0.33 -0.11 0.33 -0.13 0.33 -0.15 0.31 -0.16 0.31 -0.18 0.29 -0.19 0.29 -0.21 0.28 -0.21 0.27 -0.24 0.25 -0.24 0.24 -0.25 0.24 -0.27 0.21 -0.28 0.21 -0.28 0.19 -0.3 0.18 -0.31 0.16 -0.31 0.15 -0.33 0.13 -0.33 0.11 -0.33 0.1 -0.35 0.08 -0.35 0.07 -0.36 0.04 -0.36 0.03 -0.37 0.01 -0.38 5.74 0 -0.01 0.67 -0.05 0.66 -0.09 0.66 -0.11 0.64 -0.15 0.63 -0.18 0.62 -0.2 0.61 -0.24 0.59 -0.26 0.58 -0.29 0.56 -0.31 0.55 -0.34 0.52 -0.37 0.52 -0.39 0.49 -0.41 0.47 -0.43 0.45 -0.45 0.44 -0.47 0.4 -0.49 0.39 -0.52 0.37 -0.52 0.34 -0.55 0.31 -0.56 0.29 -0.58 0.26 -0.59 0.24 -0.61 0.2 -0.62 0.18 -0.63 0.15 -0.64 0.11 -0.66 0.09 -0.66 0.05 -0.67 0.01 0 0zm-183.19 -5.74l183.19 0 0 5.74 -183.19 0 0 0 0 -5.74zm-13.05 -7.31l5.74 0 0 0 0.01 0.38 0.03 0.37 0.05 0.36 0.06 0.36 0.09 0.35 0.09 0.35 0.12 0.33 0.13 0.33 0.15 0.33 0.16 0.31 0.17 0.31 0.2 0.3 0.2 0.28 0.22 0.28 0.23 0.27 0.24 0.25 0.26 0.24 0.27 0.24 0.27 0.21 0.29 0.21 0.3 0.19 0.3 0.18 0.32 0.16 0.32 0.15 0.33 0.13 0.34 0.11 0.34 0.1 0.35 0.08 0.36 0.07 0.37 0.04 0.36 0.03 0.38 0.01 0 5.74 -0.67 -0.01 -0.66 -0.05 -0.65 -0.09 -0.64 -0.11 -0.64 -0.15 -0.61 -0.18 -0.61 -0.2 -0.59 -0.24 -0.58 -0.26 -0.57 -0.29 -0.54 -0.31 -0.53 -0.34 -0.51 -0.37 -0.49 -0.39 -0.48 -0.4 -0.45 -0.44 -0.43 -0.45 -0.41 -0.47 -0.39 -0.49 -0.36 -0.52 -0.34 -0.52 -0.32 -0.55 -0.29 -0.56 -0.26 -0.58 -0.23 -0.59 -0.21 -0.61 -0.18 -0.62 -0.14 -0.63 -0.12 -0.64 -0.08 -0.66 -0.05 -0.66 -0.02 -0.67 0 0zm5.74 -183.19l0 183.19 -5.74 0 0 -183.19 0 0 5.74 0zm7.31 -13.05l0 5.74 0 0 -0.38 0.01 -0.36 0.03 -0.37 0.05 -0.36 0.06 -0.35 0.09 -0.34 0.09 -0.34 0.12 -0.33 0.13 -0.32 0.15 -0.32 0.16 -0.3 0.17 -0.3 0.2 -0.29 0.2 -0.27 0.22 -0.27 0.23 -0.26 0.24 -0.24 0.26 -0.23 0.27 -0.22 0.27 -0.2 0.29 -0.2 0.3 -0.17 0.3 -0.16 0.32 -0.15 0.32 -0.13 0.33 -0.12 0.34 -0.09 0.34 -0.09 0.35 -0.06 0.36 -0.05 0.37 -0.03 0.36 -0.01 0.38 -5.74 0 0.02 -0.67 0.05 -0.66 0.08 -0.65 0.12 -0.64 0.14 -0.64 0.18 -0.61 0.21 -0.61 0.23 -0.59 0.26 -0.58 0.29 -0.57 0.32 -0.54 0.34 -0.53 0.36 -0.51 0.39 -0.49 0.41 -0.48 0.43 -0.45 0.45 -0.43 0.48 -0.41 0.49 -0.39 0.51 -0.36 0.53 -0.34 0.54 -0.32 0.57 -0.29 0.58 -0.26 0.59 -0.23 0.61 -0.21 0.61 -0.18 0.64 -0.14 0.64 -0.12 0.65 -0.08 0.66 -0.05 0.67 -0.02 0 0z"/>
  </g>
  <path class="fil2" d="M78.98 79.35l-12.04 0 -4.77 -12.57 -22.13 0 -4.59 12.57 -11.82 0 21.43 -55.2 11.81 0 22.11 55.2zm-20.43 -21.9l-7.67 -20.42 -7.45 20.42 15.12 0z"/>
  <path id="1" class="fil2" d="M82 61.46l10.87 -1.08c0.65,3.64 1.96,6.3 3.96,8.01 1.99,1.71 4.67,2.55 8.05,2.55 3.57,0 6.27,-0.75 8.08,-2.27 1.81,-1.52 2.73,-3.29 2.73,-5.32 0,-1.31 -0.39,-2.41 -1.15,-3.34 -0.76,-0.91 -2.09,-1.71 -3.99,-2.38 -1.3,-0.46 -4.26,-1.26 -8.88,-2.41 -5.95,-1.49 -10.13,-3.32 -12.53,-5.49 -3.38,-3.04 -5.06,-6.76 -5.06,-11.14 0,-2.81 0.8,-5.46 2.38,-7.91 1.59,-2.46 3.88,-4.32 6.87,-5.6 2.99,-1.29 6.59,-1.93 10.83,-1.93 6.9,0 12.1,1.53 15.59,4.6 3.49,3.07 5.32,7.16 5.5,12.28l-11.18 0.39c-0.48,-2.86 -1.49,-4.9 -3.05,-6.14 -1.55,-1.25 -3.89,-1.88 -7,-1.88 -3.21,0 -5.73,0.67 -7.54,2 -1.17,0.87 -1.76,2.01 -1.76,3.45 0,1.31 0.55,2.43 1.66,3.35 1.4,1.2 4.8,2.43 10.21,3.71 5.41,1.28 9.4,2.61 11.99,3.97 2.59,1.38 4.62,3.24 6.09,5.62 1.46,2.38 2.19,5.3 2.19,8.79 0,3.16 -0.87,6.13 -2.63,8.89 -1.76,2.76 -4.24,4.82 -7.45,6.15 -3.21,1.35 -7.22,2.02 -12.01,2.02 -6.98,0 -12.34,-1.61 -16.08,-4.83 -3.74,-3.21 -5.96,-7.9 -6.69,-14.06z"/>
  <path id="2" class="fil2" d="M162.02 59.07l0 -9.33 23.97 0 0 22.03c-2.32,2.27 -5.7,4.26 -10.14,6 -4.42,1.72 -8.9,2.58 -13.45,2.58 -5.77,0 -10.79,-1.21 -15.08,-3.64 -4.28,-2.43 -7.5,-5.91 -9.66,-10.42 -2.16,-4.51 -3.24,-9.43 -3.24,-14.73 0,-5.76 1.21,-10.87 3.61,-15.36 2.41,-4.47 5.94,-7.91 10.57,-10.3 3.55,-1.84 7.94,-2.75 13.21,-2.75 6.85,0 12.21,1.44 16.06,4.32 3.84,2.89 6.32,6.86 7.43,11.94l-11.1 2.09c-0.77,-2.71 -2.24,-4.86 -4.38,-6.44 -2.14,-1.57 -4.81,-2.35 -8.02,-2.35 -4.86,0 -8.73,1.54 -11.59,4.64 -2.87,3.09 -4.3,7.68 -4.3,13.76 0,6.56 1.45,11.48 4.35,14.76 2.92,3.28 6.72,4.92 11.44,4.92 2.32,0 4.66,-0.46 7,-1.37 2.35,-0.92 4.35,-2.03 6.04,-3.35l0 -7 -12.72 0z"/>
  <path class="fil2" d="M85.85 97.62l4.62 -0.29c0.1,0.75 0.3,1.32 0.61,1.71 0.5,0.63 1.22,0.95 2.15,0.95 0.69,0 1.22,-0.16 1.6,-0.49 0.38,-0.33 0.56,-0.7 0.56,-1.13 0,-0.41 -0.17,-0.77 -0.53,-1.1 -0.35,-0.32 -1.18,-0.62 -2.48,-0.91 -2.13,-0.47 -3.65,-1.11 -4.56,-1.91 -0.91,-0.79 -1.37,-1.8 -1.37,-3.03 0,-0.81 0.23,-1.57 0.7,-2.29 0.47,-0.72 1.17,-1.28 2.11,-1.69 0.95,-0.41 2.23,-0.62 3.87,-0.62 2.01,0 3.54,0.38 4.6,1.13 1.05,0.75 1.68,1.94 1.88,3.57l-4.57 0.27c-0.12,-0.71 -0.38,-1.23 -0.77,-1.56 -0.39,-0.32 -0.93,-0.48 -1.61,-0.48 -0.56,0 -0.99,0.12 -1.28,0.36 -0.28,0.23 -0.43,0.53 -0.43,0.87 0,0.25 0.12,0.47 0.35,0.67 0.22,0.21 0.77,0.4 1.62,0.58 2.13,0.46 3.65,0.93 4.56,1.4 0.92,0.46 1.59,1.04 2.01,1.74 0.42,0.69 0.63,1.47 0.63,2.33 0,1.01 -0.28,1.94 -0.84,2.79 -0.56,0.85 -1.34,1.5 -2.34,1.94 -1,0.44 -2.26,0.66 -3.78,0.66 -2.68,0 -4.53,-0.52 -5.56,-1.55 -1.03,-1.03 -1.61,-2.34 -1.75,-3.92z"/>
  <path id="1" class="fil2" d="M106.27 95.11l-4.17 -0.44c0.16,-0.73 0.38,-1.31 0.68,-1.73 0.3,-0.42 0.72,-0.78 1.28,-1.09 0.4,-0.22 0.95,-0.39 1.65,-0.51 0.7,-0.12 1.46,-0.19 2.27,-0.19 1.31,0 2.36,0.08 3.15,0.22 0.8,0.15 1.46,0.46 1.99,0.92 0.37,0.32 0.66,0.78 0.88,1.37 0.21,0.59 0.32,1.16 0.32,1.69l0 5.04c0,0.54 0.03,0.96 0.1,1.27 0.07,0.3 0.22,0.69 0.44,1.16l-4.09 0c-0.16,-0.29 -0.27,-0.51 -0.32,-0.66 -0.05,-0.16 -0.1,-0.4 -0.15,-0.72 -0.57,0.55 -1.14,0.94 -1.71,1.17 -0.77,0.32 -1.67,0.48 -2.69,0.48 -1.36,0 -2.39,-0.32 -3.09,-0.95 -0.71,-0.63 -1.06,-1.41 -1.06,-2.34 0,-0.86 0.25,-1.58 0.76,-2.14 0.51,-0.56 1.45,-0.98 2.81,-1.25 1.64,-0.33 2.7,-0.56 3.19,-0.69 0.49,-0.13 1,-0.31 1.54,-0.52 0,-0.54 -0.11,-0.92 -0.33,-1.13 -0.22,-0.22 -0.61,-0.32 -1.16,-0.32 -0.72,0 -1.25,0.11 -1.61,0.34 -0.28,0.18 -0.5,0.52 -0.68,1.02zm3.78 2.28c-0.6,0.22 -1.22,0.41 -1.88,0.58 -0.88,0.24 -1.45,0.47 -1.68,0.7 -0.25,0.24 -0.37,0.51 -0.37,0.82 0,0.34 0.12,0.63 0.36,0.85 0.24,0.22 0.59,0.33 1.06,0.33 0.48,0 0.94,-0.12 1.36,-0.36 0.42,-0.24 0.71,-0.53 0.89,-0.87 0.18,-0.35 0.26,-0.79 0.26,-1.34l0 -0.71z"/>
  <path id="2" class="fil2" d="M125.44 98.36l4.15 0.46c-0.23,0.87 -0.6,1.62 -1.13,2.26 -0.52,0.63 -1.19,1.13 -2,1.48 -0.81,0.35 -1.84,0.53 -3.1,0.53 -1.21,0 -2.21,-0.12 -3.02,-0.34 -0.8,-0.23 -1.49,-0.59 -2.08,-1.1 -0.58,-0.5 -1.03,-1.09 -1.36,-1.78 -0.33,-0.68 -0.49,-1.58 -0.49,-2.7 0,-1.17 0.2,-2.15 0.6,-2.93 0.29,-0.58 0.69,-1.09 1.2,-1.55 0.51,-0.45 1.03,-0.79 1.57,-1.01 0.85,-0.35 1.94,-0.53 3.27,-0.53 1.87,0 3.29,0.34 4.26,1 0.98,0.67 1.67,1.64 2.06,2.91l-4.11 0.55c-0.13,-0.48 -0.36,-0.85 -0.7,-1.1 -0.34,-0.24 -0.8,-0.37 -1.37,-0.37 -0.73,0 -1.31,0.26 -1.76,0.78 -0.45,0.52 -0.67,1.3 -0.67,2.36 0,0.94 0.22,1.65 0.66,2.13 0.45,0.49 1.01,0.73 1.7,0.73 0.57,0 1.05,-0.14 1.44,-0.43 0.39,-0.3 0.68,-0.74 0.88,-1.35z"/>
  <path id="3" class="fil2" d="M131.21 87.09l4.38 0 0 5.79c0.59,-0.62 1.18,-1.06 1.77,-1.33 0.58,-0.27 1.28,-0.4 2.07,-0.4 1.19,0 2.12,0.37 2.81,1.09 0.68,0.72 1.02,1.83 1.02,3.33l0 7.25 -4.4 0 0 -6.27c0,-0.72 -0.13,-1.23 -0.39,-1.52 -0.27,-0.3 -0.64,-0.45 -1.11,-0.45 -0.53,0 -0.96,0.2 -1.28,0.6 -0.33,0.41 -0.49,1.12 -0.49,2.16l0 5.48 -4.38 0 0 -15.73z"/>
  <path id="4" class="fil2" d="M145.1 99.66l4.33 -0.4c0.18,0.52 0.43,0.88 0.75,1.1 0.33,0.22 0.76,0.33 1.29,0.33 0.59,0 1.04,-0.12 1.37,-0.38 0.25,-0.18 0.37,-0.41 0.37,-0.69 0,-0.32 -0.16,-0.56 -0.49,-0.73 -0.24,-0.13 -0.86,-0.28 -1.88,-0.46 -1.51,-0.26 -2.56,-0.5 -3.16,-0.73 -0.59,-0.23 -1.08,-0.61 -1.49,-1.14 -0.4,-0.54 -0.6,-1.15 -0.6,-1.84 0,-0.75 0.21,-1.4 0.65,-1.94 0.44,-0.55 1.04,-0.96 1.8,-1.22 0.77,-0.27 1.79,-0.41 3.08,-0.41 1.35,0 2.36,0.11 3,0.31 0.65,0.21 1.19,0.54 1.62,0.97 0.43,0.44 0.79,1.03 1.08,1.78l-4.13 0.39c-0.11,-0.36 -0.29,-0.63 -0.54,-0.8 -0.34,-0.23 -0.75,-0.34 -1.24,-0.34 -0.49,0 -0.85,0.09 -1.07,0.26 -0.23,0.18 -0.34,0.39 -0.34,0.64 0,0.28 0.14,0.49 0.42,0.64 0.29,0.14 0.91,0.27 1.86,0.38 1.46,0.17 2.54,0.4 3.25,0.69 0.7,0.3 1.25,0.71 1.62,1.26 0.38,0.54 0.56,1.14 0.56,1.79 0,0.66 -0.19,1.3 -0.59,1.93 -0.4,0.62 -1.03,1.11 -1.88,1.48 -0.85,0.37 -2.02,0.56 -3.49,0.56 -2.08,0 -3.56,-0.3 -4.45,-0.9 -0.88,-0.59 -1.45,-1.44 -1.7,-2.53z"/>
  <path id="5" class="fil2" d="M171.96 98.21l-8.77 0c0.08,0.7 0.26,1.22 0.57,1.57 0.42,0.49 0.97,0.74 1.65,0.74 0.44,0 0.85,-0.11 1.23,-0.32 0.24,-0.14 0.5,-0.38 0.77,-0.72l4.3 0.4c-0.66,1.14 -1.45,1.96 -2.38,2.46 -0.93,0.5 -2.27,0.75 -4.01,0.75 -1.51,0 -2.7,-0.22 -3.57,-0.64 -0.86,-0.43 -1.58,-1.11 -2.15,-2.03 -0.57,-0.93 -0.85,-2.03 -0.85,-3.28 0,-1.78 0.57,-3.23 1.71,-4.33 1.14,-1.1 2.72,-1.66 4.73,-1.66 1.63,0 2.92,0.25 3.86,0.75 0.95,0.49 1.67,1.21 2.17,2.15 0.49,0.93 0.74,2.16 0.74,3.66l0 0.5zm-4.44 -2.09c-0.09,-0.85 -0.32,-1.46 -0.69,-1.82 -0.37,-0.37 -0.85,-0.55 -1.46,-0.55 -0.69,0 -1.25,0.27 -1.67,0.83 -0.26,0.34 -0.43,0.85 -0.5,1.54l4.32 0z"/>
  <path id="6" class="fil2" d="M173.96 91.42l4.07 0 0 1.85c0.61,-0.76 1.22,-1.3 1.84,-1.63 0.62,-0.32 1.38,-0.49 2.27,-0.49 1.21,0 2.15,0.36 2.84,1.08 0.68,0.72 1.02,1.83 1.02,3.34l0 7.25 -4.4 0 0 -6.27c0,-0.72 -0.13,-1.23 -0.39,-1.52 -0.27,-0.3 -0.64,-0.45 -1.11,-0.45 -0.53,0 -0.95,0.2 -1.28,0.6 -0.33,0.41 -0.49,1.12 -0.49,2.16l0 5.48 -4.37 0 0 -11.4z"/>
  <path class="fil2" d="M20.15 175.19c18.66,-18.35 45.63,-33.2 77.48,-43.43 26.78,-8.61 57.02,-13.98 88.68,-15.44l0 5.62c-31.09,1.46 -60.74,6.72 -86.97,15.15 -31.03,9.97 -57.23,24.36 -75.26,42.09l-3.93 -3.99z"/>
  <path class="fil2" d="M66.5 172.99l2 -0.2c0.12,0.67 0.36,1.16 0.72,1.47 0.37,0.31 0.86,0.47 1.49,0.47 0.65,0 1.15,-0.14 1.48,-0.42 0.34,-0.28 0.5,-0.6 0.5,-0.98 0,-0.24 -0.07,-0.44 -0.21,-0.61 -0.14,-0.17 -0.38,-0.32 -0.73,-0.44 -0.24,-0.08 -0.78,-0.23 -1.63,-0.44 -1.1,-0.28 -1.87,-0.61 -2.31,-1.01 -0.62,-0.56 -0.93,-1.24 -0.93,-2.05 0,-0.52 0.15,-1 0.44,-1.46 0.29,-0.45 0.71,-0.79 1.26,-1.03 0.55,-0.23 1.21,-0.35 1.99,-0.35 1.27,0 2.23,0.28 2.87,0.85 0.64,0.56 0.98,1.31 1.01,2.25l-2.05 0.08c-0.09,-0.53 -0.28,-0.91 -0.56,-1.13 -0.29,-0.23 -0.72,-0.35 -1.29,-0.35 -0.59,0 -1.06,0.12 -1.39,0.37 -0.21,0.16 -0.32,0.37 -0.32,0.63 0,0.24 0.1,0.45 0.3,0.62 0.26,0.22 0.89,0.45 1.88,0.68 1,0.24 1.73,0.48 2.21,0.73 0.47,0.26 0.85,0.6 1.12,1.04 0.26,0.43 0.4,0.97 0.4,1.61 0,0.58 -0.16,1.13 -0.48,1.64 -0.33,0.5 -0.78,0.88 -1.38,1.13 -0.59,0.25 -1.32,0.37 -2.2,0.37 -1.29,0 -2.27,-0.3 -2.96,-0.89 -0.69,-0.59 -1.1,-1.45 -1.23,-2.58z"/>
  <path id="1" class="fil2" d="M82.89 171.1l-1.92 0.34c-0.06,-0.38 -0.21,-0.67 -0.44,-0.86 -0.22,-0.19 -0.52,-0.29 -0.88,-0.29 -0.49,0 -0.88,0.17 -1.16,0.51 -0.29,0.33 -0.44,0.89 -0.44,1.68 0,0.87 0.15,1.49 0.44,1.85 0.3,0.36 0.69,0.54 1.18,0.54 0.37,0 0.67,-0.1 0.9,-0.31 0.24,-0.22 0.41,-0.58 0.5,-1.09l1.92 0.32c-0.2,0.88 -0.58,1.55 -1.14,2 -0.57,0.45 -1.32,0.67 -2.27,0.67 -1.07,0 -1.93,-0.34 -2.57,-1.02 -0.64,-0.68 -0.96,-1.62 -0.96,-2.82 0,-1.22 0.33,-2.16 0.97,-2.84 0.64,-0.68 1.5,-1.02 2.6,-1.02 0.89,0 1.6,0.19 2.13,0.58 0.53,0.38 0.91,0.97 1.14,1.76z"/>
  <path id="2" class="fil2" d="M86.28 166.12l0 3.77c0.63,-0.75 1.39,-1.13 2.26,-1.13 0.45,0 0.86,0.08 1.22,0.25 0.36,0.17 0.64,0.38 0.82,0.64 0.18,0.25 0.31,0.54 0.38,0.85 0.06,0.32 0.1,0.81 0.1,1.47l0 4.31 -1.94 0 0 -3.88c0,-0.78 -0.04,-1.26 -0.12,-1.47 -0.07,-0.21 -0.2,-0.38 -0.39,-0.5 -0.19,-0.12 -0.43,-0.18 -0.71,-0.18 -0.33,0 -0.62,0.08 -0.88,0.24 -0.26,0.15 -0.44,0.39 -0.56,0.7 -0.12,0.32 -0.18,0.79 -0.18,1.4l0 3.69 -1.94 0 0 -10.16 1.94 0z"/>
  <path id="3" class="fil2" d="M97.89 176.28l0 -1.11c-0.27,0.4 -0.62,0.71 -1.06,0.94 -0.44,0.23 -0.9,0.35 -1.38,0.35 -0.5,0 -0.94,-0.11 -1.33,-0.33 -0.4,-0.21 -0.68,-0.52 -0.86,-0.91 -0.17,-0.4 -0.26,-0.94 -0.26,-1.64l0 -4.66 1.94 0 0 3.39c0,1.03 0.04,1.67 0.11,1.9 0.07,0.23 0.2,0.42 0.39,0.56 0.19,0.13 0.43,0.2 0.72,0.2 0.34,0 0.64,-0.09 0.9,-0.27 0.26,-0.18 0.44,-0.41 0.54,-0.68 0.1,-0.28 0.15,-0.94 0.15,-1.99l0 -3.11 1.94 0 0 7.36 -1.8 0z"/>
  <polygon id="4" class="fil2" points="101.69,176.28 101.69,166.12 103.63,166.12 103.63,176.28 "/>
  <path id="5" class="fil2" d="M105.44 176.74l2.23 0.27c0.04,0.27 0.12,0.44 0.25,0.54 0.19,0.14 0.48,0.21 0.88,0.21 0.51,0 0.89,-0.07 1.14,-0.22 0.17,-0.11 0.3,-0.27 0.39,-0.5 0.06,-0.16 0.09,-0.46 0.09,-0.89l0.01 -1.07c-0.59,0.8 -1.32,1.2 -2.21,1.2 -0.99,0 -1.78,-0.42 -2.35,-1.26 -0.46,-0.66 -0.68,-1.48 -0.68,-2.46 0,-1.23 0.3,-2.17 0.89,-2.82 0.59,-0.65 1.33,-0.98 2.21,-0.98 0.91,0 1.67,0.4 2.26,1.2l0 -1.04 1.81 0 0 6.59c0,0.87 -0.07,1.52 -0.21,1.95 -0.15,0.43 -0.35,0.77 -0.61,1.01 -0.25,0.24 -0.6,0.44 -1.03,0.58 -0.43,0.13 -0.98,0.2 -1.64,0.2 -1.25,0 -2.13,-0.21 -2.65,-0.64 -0.52,-0.43 -0.78,-0.97 -0.78,-1.63 0,-0.06 0,-0.14 0,-0.24zm1.75 -4.29c0,0.78 0.15,1.35 0.45,1.71 0.3,0.36 0.67,0.54 1.12,0.54 0.47,0 0.87,-0.18 1.2,-0.56 0.32,-0.37 0.49,-0.92 0.49,-1.64 0,-0.76 -0.16,-1.33 -0.47,-1.7 -0.31,-0.37 -0.71,-0.55 -1.19,-0.55 -0.47,0 -0.85,0.18 -1.15,0.54 -0.3,0.36 -0.45,0.92 -0.45,1.66z"/>
  <path id="6" class="fil2" d="M118.54 173.95l1.94 0.33c-0.24,0.71 -0.64,1.25 -1.18,1.62 -0.53,0.37 -1.21,0.56 -2.01,0.56 -1.28,0 -2.23,-0.42 -2.84,-1.25 -0.49,-0.68 -0.73,-1.52 -0.73,-2.55 0,-1.21 0.32,-2.17 0.96,-2.86 0.63,-0.69 1.44,-1.04 2.41,-1.04 1.09,0 1.95,0.36 2.59,1.09 0.63,0.72 0.93,1.83 0.9,3.32l-4.86 0c0.01,0.58 0.17,1.03 0.47,1.35 0.3,0.32 0.67,0.48 1.12,0.48 0.3,0 0.56,-0.08 0.76,-0.25 0.21,-0.16 0.37,-0.43 0.47,-0.8zm0.11 -1.97c-0.01,-0.57 -0.15,-1 -0.43,-1.29 -0.28,-0.29 -0.61,-0.44 -1.01,-0.44 -0.42,0 -0.77,0.16 -1.05,0.46 -0.27,0.31 -0.41,0.74 -0.4,1.27l2.89 0z"/>
  <path id="7" class="fil2" d="M121.48 174.21l1.96 -0.3c0.08,0.37 0.25,0.66 0.5,0.85 0.25,0.2 0.61,0.3 1.07,0.3 0.5,0 0.88,-0.1 1.13,-0.28 0.17,-0.13 0.26,-0.31 0.26,-0.52 0,-0.15 -0.05,-0.27 -0.14,-0.37 -0.1,-0.09 -0.31,-0.18 -0.65,-0.26 -1.57,-0.34 -2.57,-0.66 -2.99,-0.95 -0.58,-0.4 -0.87,-0.95 -0.87,-1.66 0,-0.64 0.25,-1.17 0.75,-1.61 0.51,-0.43 1.29,-0.65 2.34,-0.65 1.01,0 1.76,0.17 2.25,0.49 0.49,0.34 0.83,0.82 1.01,1.47l-1.83 0.34c-0.08,-0.29 -0.23,-0.51 -0.45,-0.67 -0.22,-0.15 -0.53,-0.23 -0.94,-0.23 -0.52,0 -0.88,0.08 -1.11,0.22 -0.15,0.1 -0.22,0.23 -0.22,0.39 0,0.14 0.06,0.26 0.19,0.36 0.18,0.13 0.79,0.31 1.83,0.55 1.04,0.23 1.76,0.52 2.17,0.86 0.41,0.35 0.62,0.83 0.62,1.45 0,0.68 -0.29,1.26 -0.85,1.74 -0.56,0.49 -1.4,0.73 -2.5,0.73 -1,0 -1.8,-0.2 -2.39,-0.61 -0.58,-0.4 -0.96,-0.95 -1.14,-1.64z"/>
  <path id="8" class="fil2" d="M134.31 173.95l1.95 0.33c-0.25,0.71 -0.65,1.25 -1.18,1.62 -0.54,0.37 -1.22,0.56 -2.02,0.56 -1.28,0 -2.23,-0.42 -2.84,-1.25 -0.48,-0.68 -0.73,-1.52 -0.73,-2.55 0,-1.21 0.32,-2.17 0.96,-2.86 0.63,-0.69 1.44,-1.04 2.41,-1.04 1.09,0 1.96,0.36 2.59,1.09 0.63,0.72 0.93,1.83 0.9,3.32l-4.86 0c0.02,0.58 0.17,1.03 0.47,1.35 0.3,0.32 0.67,0.48 1.12,0.48 0.3,0 0.56,-0.08 0.76,-0.25 0.21,-0.16 0.37,-0.43 0.47,-0.8zm0.12 -1.97c-0.02,-0.57 -0.16,-1 -0.44,-1.29 -0.27,-0.29 -0.61,-0.44 -1.01,-0.44 -0.42,0 -0.77,0.16 -1.05,0.46 -0.27,0.31 -0.41,0.74 -0.4,1.27l2.9 0z"/>
  <polygon id="9" class="fil2" points="137.95,176.28 137.95,166.12 139.89,166.12 139.89,176.28 "/>
  <polygon id="10" class="fil2" points="141.88,176.28 141.88,166.12 143.83,166.12 143.83,176.28 "/>
  <path id="11" class="fil2" d="M145.13 174.21l1.96 -0.3c0.08,0.37 0.25,0.66 0.5,0.85 0.25,0.2 0.61,0.3 1.07,0.3 0.5,0 0.88,-0.1 1.13,-0.28 0.17,-0.13 0.26,-0.31 0.26,-0.52 0,-0.15 -0.05,-0.27 -0.14,-0.37 -0.1,-0.09 -0.31,-0.18 -0.65,-0.26 -1.57,-0.34 -2.57,-0.66 -2.99,-0.95 -0.58,-0.4 -0.87,-0.95 -0.87,-1.66 0,-0.64 0.25,-1.17 0.76,-1.61 0.5,-0.43 1.28,-0.65 2.33,-0.65 1.01,0 1.76,0.17 2.25,0.49 0.49,0.34 0.83,0.82 1.01,1.47l-1.83 0.34c-0.08,-0.29 -0.23,-0.51 -0.45,-0.67 -0.22,-0.15 -0.53,-0.23 -0.94,-0.23 -0.52,0 -0.88,0.08 -1.11,0.22 -0.15,0.1 -0.22,0.23 -0.22,0.39 0,0.14 0.06,0.26 0.19,0.36 0.18,0.13 0.79,0.31 1.83,0.55 1.04,0.23 1.76,0.52 2.17,0.86 0.41,0.35 0.62,0.83 0.62,1.45 0,0.68 -0.29,1.26 -0.85,1.74 -0.56,0.49 -1.4,0.73 -2.5,0.73 -1,0 -1.8,-0.2 -2.38,-0.61 -0.59,-0.4 -0.97,-0.95 -1.15,-1.64z"/>
  <path id="12" class="fil2" d="M160.12 171.1l-1.92 0.34c-0.06,-0.38 -0.21,-0.67 -0.43,-0.86 -0.23,-0.19 -0.53,-0.29 -0.89,-0.29 -0.49,0 -0.88,0.17 -1.16,0.51 -0.29,0.33 -0.44,0.89 -0.44,1.68 0,0.87 0.15,1.49 0.44,1.85 0.3,0.36 0.69,0.54 1.18,0.54 0.37,0 0.67,-0.1 0.91,-0.31 0.23,-0.22 0.4,-0.58 0.49,-1.09l1.92 0.32c-0.2,0.88 -0.58,1.55 -1.14,2 -0.57,0.45 -1.32,0.67 -2.27,0.67 -1.07,0 -1.93,-0.34 -2.57,-1.02 -0.64,-0.68 -0.96,-1.62 -0.96,-2.82 0,-1.22 0.33,-2.16 0.97,-2.84 0.64,-0.68 1.5,-1.02 2.6,-1.02 0.89,0 1.6,0.19 2.13,0.58 0.53,0.38 0.91,0.97 1.14,1.76z"/>
  <path id="13" class="fil2" d="M163.51 166.12l0 3.77c0.63,-0.75 1.39,-1.13 2.26,-1.13 0.46,0 0.86,0.08 1.22,0.25 0.36,0.17 0.64,0.38 0.82,0.64 0.19,0.25 0.31,0.54 0.38,0.85 0.07,0.32 0.1,0.81 0.1,1.47l0 4.31 -1.94 0 0 -3.88c0,-0.78 -0.04,-1.26 -0.12,-1.47 -0.07,-0.21 -0.2,-0.38 -0.39,-0.5 -0.19,-0.12 -0.43,-0.18 -0.71,-0.18 -0.33,0 -0.62,0.08 -0.88,0.24 -0.26,0.15 -0.44,0.39 -0.56,0.7 -0.12,0.32 -0.18,0.79 -0.18,1.4l0 3.69 -1.94 0 0 -10.16 1.94 0z"/>
  <path id="14" class="fil2" d="M171.7 171.19l-1.76 -0.32c0.2,-0.72 0.55,-1.25 1.03,-1.59 0.48,-0.35 1.21,-0.52 2.16,-0.52 0.87,0 1.52,0.1 1.94,0.31 0.42,0.2 0.72,0.46 0.9,0.78 0.17,0.32 0.26,0.9 0.26,1.74l-0.03 2.27c0,0.65 0.03,1.12 0.09,1.43 0.06,0.31 0.18,0.64 0.35,0.99l-1.93 0c-0.05,-0.13 -0.11,-0.32 -0.19,-0.57 -0.03,-0.12 -0.05,-0.19 -0.07,-0.23 -0.33,0.33 -0.68,0.57 -1.06,0.73 -0.38,0.17 -0.78,0.25 -1.21,0.25 -0.75,0 -1.35,-0.21 -1.78,-0.62 -0.44,-0.41 -0.65,-0.93 -0.65,-1.55 0,-0.42 0.1,-0.79 0.29,-1.11 0.2,-0.33 0.48,-0.58 0.84,-0.75 0.36,-0.17 0.87,-0.33 1.54,-0.46 0.91,-0.17 1.54,-0.33 1.89,-0.47l0 -0.2c0,-0.38 -0.09,-0.65 -0.27,-0.81 -0.19,-0.16 -0.54,-0.24 -1.05,-0.24 -0.35,0 -0.62,0.07 -0.81,0.21 -0.2,0.13 -0.36,0.38 -0.48,0.73zm2.61 1.57c-0.25,0.08 -0.64,0.18 -1.18,0.3 -0.54,0.11 -0.9,0.23 -1.06,0.33 -0.25,0.19 -0.38,0.41 -0.38,0.69 0,0.27 0.1,0.51 0.3,0.71 0.21,0.2 0.46,0.29 0.78,0.29 0.35,0 0.68,-0.11 1,-0.34 0.24,-0.18 0.39,-0.39 0.47,-0.65 0.05,-0.16 0.07,-0.48 0.07,-0.94l0 -0.39z"/>
  <path id="15" class="fil2" d="M177.29 168.92l1.08 0 0 -0.56c0,-0.62 0.07,-1.08 0.2,-1.39 0.13,-0.3 0.37,-0.55 0.73,-0.74 0.35,-0.19 0.8,-0.29 1.35,-0.29 0.55,0 1.1,0.08 1.63,0.25l-0.25 1.35c-0.31,-0.07 -0.62,-0.11 -0.91,-0.11 -0.29,0 -0.49,0.06 -0.62,0.2 -0.12,0.13 -0.19,0.38 -0.19,0.76l0 0.53 1.46 0 0 1.53 -1.46 0 0 5.83 -1.94 0 0 -5.83 -1.08 0 0 -1.53z"/>
  <path id="16" class="fil2" d="M186.22 168.92l0 1.54 -1.33 0 0 2.98c0,0.61 0.01,0.96 0.04,1.06 0.03,0.1 0.08,0.18 0.17,0.25 0.09,0.06 0.2,0.09 0.33,0.09 0.18,0 0.44,-0.06 0.79,-0.18l0.16 1.51c-0.45,0.19 -0.96,0.29 -1.53,0.29 -0.35,0 -0.67,-0.06 -0.95,-0.18 -0.28,-0.12 -0.49,-0.27 -0.62,-0.46 -0.13,-0.18 -0.22,-0.44 -0.27,-0.76 -0.04,-0.23 -0.06,-0.68 -0.06,-1.38l0 -3.22 -0.89 0 0 -1.54 0.89 0 0 -1.46 1.94 -1.15 0 2.61 1.33 0z"/>
  <path id="17" class="fil2" d="M118.74 160.44l-2.21 0 -0.88 -2.32 -4.07 0 -0.85 2.32 -2.17 0 3.94 -10.16 2.17 0 4.07 10.16zm-3.76 -4.03l-1.41 -3.76 -1.37 3.76 2.78 0z"/>
  <path id="18" class="fil2" d="M126.51 160.44l-1.94 0 0 -3.75c0,-0.8 -0.04,-1.31 -0.13,-1.54 -0.08,-0.24 -0.22,-0.42 -0.4,-0.55 -0.19,-0.13 -0.42,-0.19 -0.68,-0.19 -0.34,0 -0.65,0.09 -0.92,0.28 -0.27,0.18 -0.46,0.43 -0.55,0.73 -0.11,0.3 -0.16,0.87 -0.16,1.69l0 3.33 -1.94 0 0 -7.36 1.8 0 0 1.08c0.65,-0.83 1.46,-1.24 2.44,-1.24 0.43,0 0.82,0.08 1.18,0.23 0.36,0.16 0.63,0.35 0.81,0.59 0.19,0.24 0.31,0.52 0.38,0.82 0.08,0.31 0.11,0.74 0.11,1.31l0 4.57z"/>
  <path id="19" class="fil2" d="M132.73 158.11l1.95 0.33c-0.25,0.71 -0.65,1.25 -1.18,1.62 -0.54,0.37 -1.21,0.56 -2.02,0.56 -1.28,0 -2.23,-0.42 -2.84,-1.26 -0.48,-0.67 -0.73,-1.51 -0.73,-2.54 0,-1.22 0.32,-2.17 0.96,-2.86 0.63,-0.69 1.44,-1.04 2.41,-1.04 1.1,0 1.96,0.36 2.59,1.09 0.63,0.72 0.93,1.83 0.91,3.32l-4.87 0c0.02,0.58 0.17,1.03 0.47,1.35 0.3,0.32 0.67,0.48 1.12,0.48 0.3,0 0.56,-0.08 0.76,-0.25 0.21,-0.16 0.37,-0.43 0.47,-0.8zm0.12 -1.97c-0.02,-0.57 -0.16,-1 -0.44,-1.29 -0.27,-0.29 -0.61,-0.44 -1.01,-0.44 -0.42,0 -0.77,0.16 -1.04,0.46 -0.28,0.31 -0.42,0.74 -0.41,1.27l2.9 0z"/>
  <path id="20" class="fil2" d="M138.22 160.44l-1.94 0 0 -7.36 1.8 0 0 1.04c0.31,-0.49 0.59,-0.82 0.84,-0.97 0.25,-0.15 0.53,-0.23 0.84,-0.23 0.45,0 0.87,0.12 1.29,0.37l-0.61 1.69c-0.33,-0.21 -0.63,-0.32 -0.91,-0.32 -0.28,0 -0.51,0.08 -0.7,0.23 -0.19,0.15 -0.33,0.42 -0.44,0.81 -0.11,0.39 -0.17,1.22 -0.17,2.47l0 2.27z"/>
  <polygon id="21" class="fil2" points="141.81,160.44 141.81,150.28 143.76,150.28 143.76,155.67 146.03,153.08 148.43,153.08 145.92,155.77 148.61,160.44 146.51,160.44 144.66,157.12 143.76,158.08 143.76,160.44 "/>
  <path id="22" class="fil2" d="M151.22 155.34l-1.76 -0.31c0.2,-0.72 0.54,-1.25 1.02,-1.59 0.49,-0.35 1.21,-0.52 2.16,-0.52 0.87,0 1.52,0.1 1.94,0.31 0.43,0.2 0.73,0.46 0.9,0.78 0.17,0.32 0.26,0.9 0.26,1.74l-0.03 2.27c0,0.65 0.03,1.12 0.09,1.43 0.07,0.31 0.18,0.64 0.35,0.99l-1.93 0c-0.05,-0.13 -0.11,-0.32 -0.18,-0.57 -0.03,-0.12 -0.06,-0.19 -0.07,-0.23 -0.33,0.33 -0.69,0.57 -1.07,0.73 -0.37,0.17 -0.78,0.25 -1.2,0.25 -0.76,0 -1.35,-0.21 -1.79,-0.62 -0.43,-0.41 -0.65,-0.93 -0.65,-1.55 0,-0.42 0.1,-0.79 0.3,-1.12 0.2,-0.32 0.47,-0.57 0.83,-0.74 0.36,-0.17 0.87,-0.33 1.55,-0.46 0.91,-0.17 1.54,-0.33 1.89,-0.47l0 -0.2c0,-0.38 -0.1,-0.65 -0.28,-0.81 -0.19,-0.16 -0.54,-0.24 -1.05,-0.24 -0.35,0 -0.62,0.07 -0.81,0.21 -0.2,0.13 -0.35,0.38 -0.47,0.72zm2.61 1.58c-0.25,0.08 -0.65,0.18 -1.19,0.3 -0.54,0.11 -0.89,0.23 -1.06,0.33 -0.25,0.19 -0.38,0.41 -0.38,0.69 0,0.27 0.1,0.51 0.31,0.71 0.2,0.2 0.46,0.29 0.77,0.29 0.35,0 0.69,-0.11 1.01,-0.34 0.23,-0.18 0.39,-0.39 0.46,-0.65 0.05,-0.16 0.08,-0.48 0.08,-0.94l0 -0.39z"/>
  <path id="23" class="fil2" d="M164.35 160.44l-1.94 0 0 -3.75c0,-0.8 -0.05,-1.31 -0.13,-1.54 -0.08,-0.24 -0.22,-0.42 -0.41,-0.55 -0.19,-0.13 -0.41,-0.19 -0.68,-0.19 -0.34,0 -0.64,0.09 -0.91,0.28 -0.27,0.18 -0.46,0.43 -0.56,0.73 -0.1,0.3 -0.15,0.87 -0.15,1.69l0 3.33 -1.94 0 0 -7.36 1.8 0 0 1.08c0.64,-0.83 1.45,-1.24 2.44,-1.24 0.43,0 0.82,0.08 1.18,0.23 0.36,0.16 0.63,0.35 0.81,0.59 0.18,0.24 0.31,0.52 0.38,0.82 0.07,0.31 0.11,0.74 0.11,1.31l0 4.57z"/>
  <path id="24" class="fil2" d="M173.01 160.44l-1.94 0 0 -3.75c0,-0.8 -0.05,-1.31 -0.13,-1.54 -0.08,-0.24 -0.22,-0.42 -0.41,-0.55 -0.19,-0.13 -0.41,-0.19 -0.68,-0.19 -0.34,0 -0.64,0.09 -0.91,0.28 -0.27,0.18 -0.46,0.43 -0.56,0.73 -0.1,0.3 -0.15,0.87 -0.15,1.69l0 3.33 -1.94 0 0 -7.36 1.8 0 0 1.08c0.64,-0.83 1.46,-1.24 2.44,-1.24 0.43,0 0.82,0.08 1.18,0.23 0.36,0.16 0.63,0.35 0.81,0.59 0.18,0.24 0.31,0.52 0.38,0.82 0.07,0.31 0.11,0.74 0.11,1.31l0 4.57z"/>
  <path id="25" class="fil2" d="M178.34 153.08l0 1.54 -1.33 0 0 2.98c0,0.61 0.01,0.96 0.03,1.06 0.03,0.1 0.09,0.18 0.18,0.25 0.09,0.06 0.2,0.09 0.33,0.09 0.18,0 0.44,-0.06 0.78,-0.18l0.16 1.51c-0.45,0.19 -0.96,0.29 -1.53,0.29 -0.35,0 -0.66,-0.06 -0.94,-0.18 -0.29,-0.12 -0.49,-0.27 -0.62,-0.46 -0.13,-0.19 -0.22,-0.44 -0.28,-0.76 -0.04,-0.23 -0.06,-0.68 -0.06,-1.38l0 -3.22 -0.89 0 0 -1.54 0.89 0 0 -1.46 1.95 -1.15 0 2.61 1.33 0z"/>
  <path id="26" class="fil2" d="M183.95 158.11l1.95 0.33c-0.25,0.71 -0.65,1.25 -1.18,1.62 -0.54,0.37 -1.22,0.56 -2.02,0.56 -1.28,0 -2.23,-0.42 -2.84,-1.26 -0.48,-0.67 -0.73,-1.51 -0.73,-2.54 0,-1.22 0.32,-2.17 0.96,-2.86 0.63,-0.69 1.44,-1.04 2.41,-1.04 1.09,0 1.96,0.36 2.59,1.09 0.63,0.72 0.93,1.83 0.91,3.32l-4.87 0c0.02,0.58 0.17,1.03 0.47,1.35 0.3,0.32 0.67,0.48 1.12,0.48 0.3,0 0.56,-0.08 0.76,-0.25 0.21,-0.16 0.37,-0.43 0.47,-0.8zm0.12 -1.97c-0.02,-0.57 -0.16,-1 -0.44,-1.29 -0.27,-0.29 -0.61,-0.44 -1.01,-0.44 -0.42,0 -0.77,0.16 -1.05,0.46 -0.27,0.31 -0.41,0.74 -0.4,1.27l2.9 0z"/>
 </g>
</svg>
